<?xml version="1.0" standalone="no"?>
<!DOCTYPE svg PUBLIC "-//W3C//DTD SVG 20010904//EN"
 "http://www.w3.org/TR/2001/REC-SVG-20010904/DTD/svg10.dtd">
<svg version="1.0" xmlns="http://www.w3.org/2000/svg"
 width="158.000000pt" height="51.000000pt" viewBox="0 0 158.000000 51.000000"
 preserveAspectRatio="xMidYMid meet">
<metadata>
Created by potrace 1.10, written by Peter Selinger 2001-2011
</metadata>
<g transform="translate(0.000000,51.000000) scale(0.100000,-0.100000)"
fill="#ff8c00" stroke="none">
<path d="M176 334 c-22 -21 -21 -26 14 -59 17 -16 30 -32 30 -37 0 -4 -13 -8
-30 -8 -20 0 -30 -5 -30 -15 0 -11 11 -15 36 -15 75 0 98 42 44 81 -33 25 -31
39 6 39 15 0 24 6 24 15 0 21 -73 20 -94 -1z"/>
<path d="M654 275 c-1 -71 0 -75 21 -75 21 0 23 4 23 65 0 35 3 69 7 75 4 6
-5 10 -22 10 l-28 0 -1 -75z"/>
<path d="M798 275 c-3 -74 -3 -75 22 -75 24 0 25 2 26 75 2 72 1 75 -21 75
-22 0 -24 -4 -27 -75z"/>
<path d="M928 343 c7 -3 16 -2 19 1 4 3 -2 6 -13 5 -11 0 -14 -3 -6 -6z"/>
<path d="M314 325 c-4 -8 -12 -15 -18 -15 -7 0 -13 -7 -13 -15 0 -8 4 -15 8
-15 4 0 9 -17 11 -37 3 -35 6 -38 36 -41 23 -2 32 1 32 11 0 8 -7 17 -15 21
-20 7 -19 18 6 47 18 21 18 24 5 27 -9 2 -16 10 -16 18 0 19 -29 18 -36 -1z
m26 -29 c0 -3 -4 -8 -10 -11 -5 -3 -10 -1 -10 4 0 6 5 11 10 11 6 0 10 -2 10
-4z"/>
<path d="M1012 313 c-12 -15 -18 -30 -13 -33 5 -3 11 -21 13 -40 3 -31 7 -35
34 -38 36 -4 56 23 23 31 -23 6 -24 20 -4 41 17 17 20 36 5 36 -5 0 -10 7 -10
15 0 24 -24 18 -48 -12z m33 -22 c-3 -6 -11 -8 -17 -5 -6 4 -5 9 3 15 16 10
23 4 14 -10z"/>
<path d="M1122 333 c-6 -2 -10 -9 -6 -14 3 -5 -1 -9 -9 -9 -7 0 -14 -7 -14
-15 0 -8 4 -15 8 -15 4 0 9 -17 11 -37 3 -35 6 -38 36 -41 24 -2 32 1 32 12 0
9 -7 16 -15 16 -9 0 -15 9 -15 25 0 16 6 25 15 25 8 0 15 7 15 15 0 8 -7 15
-15 15 -9 0 -12 6 -9 15 6 15 -8 19 -34 8z m23 -43 c-3 -5 -10 -10 -16 -10 -5
0 -9 5 -9 10 0 6 7 10 16 10 8 0 12 -4 9 -10z"/>
<path d="M400 290 c-25 -25 -26 -52 -2 -73 40 -36 122 -8 122 41 0 48 -82 70
-120 32z m68 -32 c-4 -29 -38 -38 -38 -10 0 22 8 32 27 32 9 0 13 -8 11 -22z"/>
<path d="M546 288 c-20 -29 -20 -52 0 -72 20 -21 84 -22 84 -1 0 9 -10 15 -26
15 -21 0 -25 4 -22 23 2 15 11 23 30 25 40 5 25 32 -18 32 -23 0 -38 -7 -48
-22z"/>
<path d="M718 285 c-16 -36 6 -85 39 -85 14 0 23 3 21 8 -2 4 -10 19 -17 34
-13 25 -12 30 4 48 18 20 17 20 -9 20 -18 0 -30 -7 -38 -25z"/>
<path d="M876 288 c-34 -48 -4 -91 60 -86 49 4 59 28 10 28 -19 0 -38 5 -41
10 -4 6 12 10 39 10 50 0 60 15 28 43 -27 25 -78 22 -96 -5z m67 -15 c-7 -2
-19 -2 -25 0 -7 3 -2 5 12 5 14 0 19 -2 13 -5z"/>
<path d="M1207 292 c-21 -23 -22 -56 -1 -76 20 -21 90 -21 98 -1 4 12 -3 15
-29 15 -18 0 -37 5 -40 10 -4 6 10 10 34 10 33 0 41 4 41 18 0 10 -5 23 -12
30 -18 18 -73 14 -91 -6z m56 -19 c-7 -2 -19 -2 -25 0 -7 3 -2 5 12 5 14 0 19
-2 13 -5z"/>
<path d="M1328 254 c-3 -53 -2 -54 24 -54 20 0 26 4 22 15 -10 26 5 65 25 65
10 0 18 6 18 13 0 9 -14 14 -43 15 l-42 0 -4 -54z"/>
</g>
</svg>
